<svg width="597" height="597" viewBox="0 0 597 597" fill="none" xmlns="http://www.w3.org/2000/svg">
<g clip-path="url(#clip0_21_1216)">
<rect width="597" height="597" fill="white"/>
<g opacity="0.6">
<rect width="298.5" height="298.5" transform="matrix(1 0 0 -1 0 298.5)" fill="#C2DBFF"/>
<rect x="298.5" width="298.5" height="298.5" fill="#546EF3"/>
<path d="M298.5 0C298.5 39.1996 306.221 78.0153 321.222 114.231C336.223 150.447 358.21 183.353 385.929 211.071C413.647 238.79 446.553 260.777 482.769 275.778C518.985 290.779 557.8 298.5 597 298.5L597 0H298.5Z" fill="#C2DBFF"/>
<rect width="298.5" height="298.5" transform="matrix(1 0 0 -1 0 597)" fill="#546EF3"/>
<path d="M298.5 298.5C298.5 337.7 290.779 376.515 275.778 412.731C260.777 448.947 238.79 481.853 211.071 509.571C183.353 537.29 150.447 559.277 114.231 574.278C78.0153 589.279 39.1996 597 0 597L2.27737e-05 298.5H298.5Z" fill="#C2DBFF"/>
<rect x="298.5" y="298.5" width="298.5" height="298.5" fill="#546EF3"/>
<rect x="298.5" y="447.75" width="298.5" height="149.25" fill="#B4BFF5"/>
<path d="M447.75 298.5C530.178 298.5 597 365.322 597 447.75H298.5C298.5 365.322 365.322 298.5 447.75 298.5Z" fill="#B4BFF5"/>
</g>
<path d="M187.528 246.853V267.387C187.528 271.79 188.209 274.792 189.57 276.393C191.011 277.994 192.892 278.795 195.214 278.795H196.174C197.375 278.795 197.976 279.395 197.976 280.596V284.199C197.976 285.4 197.375 286 196.174 286H164.232C163.031 286 162.431 285.4 162.431 284.199V280.596C162.431 279.395 163.031 278.795 164.232 278.795H165.073C166.754 278.795 168.115 277.994 169.156 276.393C170.196 274.792 170.717 271.79 170.717 267.387V246.853C170.717 243.01 170.116 240.088 168.915 238.087C167.715 236.005 165.433 234.964 162.071 234.964C160.069 234.964 158.068 235.485 156.067 236.526C154.065 237.486 152.304 238.767 150.783 240.368C149.262 241.889 148.141 243.53 147.42 245.292V267.387C147.42 270.589 148.101 273.311 149.462 275.553C150.903 277.714 152.784 278.795 155.106 278.795H155.346C156.547 278.795 157.147 279.395 157.147 280.596V284.199C157.147 285.4 156.547 286 155.346 286H121.603C120.402 286 119.801 285.4 119.801 284.199V280.596C119.801 279.395 120.402 278.795 121.603 278.795H121.843C124.805 278.795 127.006 277.714 128.447 275.553C129.888 273.311 130.609 270.589 130.609 267.387V252.256C130.609 250.095 130.449 248.014 130.128 246.012C129.888 244.011 129.248 242.33 128.207 240.969C127.246 239.528 125.645 238.687 123.404 238.447C122.523 238.367 122.083 237.846 122.083 236.886V232.803C122.083 232.002 122.643 231.482 123.764 231.242C129.528 230.361 134.451 229 138.534 227.159C142.697 225.318 145.579 223.837 147.18 222.716C147.581 222.396 147.901 222.236 148.141 222.236H148.261C148.421 222.236 148.501 222.316 148.501 222.476C148.501 222.636 148.461 222.956 148.381 223.436L146.34 238.207C147.461 236.365 148.942 234.404 150.783 232.323C152.624 230.161 154.906 228.32 157.628 226.799C160.349 225.198 163.512 224.397 167.114 224.397C171.437 224.397 174.96 225.038 177.682 226.318C180.403 227.599 182.445 229.321 183.806 231.482C185.247 233.644 186.208 236.045 186.688 238.687C187.248 241.329 187.528 244.051 187.528 246.853ZM211.257 264.505C212.618 267.867 214.78 270.869 217.742 273.511C220.784 276.153 224.626 277.474 229.27 277.474C231.831 277.474 234.513 276.754 237.315 275.313C240.117 273.872 242.559 271.63 244.64 268.588C244.881 268.188 245.201 267.987 245.601 267.987C246.001 267.987 246.402 268.108 246.802 268.348C247.282 268.588 248.483 269.268 250.404 270.389C250.725 270.629 250.885 270.95 250.885 271.35C250.885 271.91 250.645 272.591 250.164 273.391C247.923 277.554 244.881 280.956 241.038 283.598C237.195 286.24 232.192 287.561 226.027 287.561C219.383 287.561 213.659 286.08 208.855 283.118C204.052 280.156 200.33 276.233 197.688 271.35C195.126 266.466 193.845 261.143 193.845 255.379C193.845 249.855 194.646 245.132 196.247 241.209C197.928 237.206 200.129 234.004 202.851 231.602C205.573 229.12 208.615 227.319 211.978 226.198C215.42 224.998 218.902 224.397 222.425 224.397C226.428 224.397 229.95 225.198 232.992 226.799C236.034 228.32 238.596 230.281 240.678 232.683C242.839 235.085 244.44 237.646 245.481 240.368C246.602 243.01 247.162 245.492 247.162 247.813C247.162 248.454 246.802 248.934 246.081 249.254L211.257 264.505ZM229.15 247.333C229.15 243.49 228.229 240.328 226.388 237.846C224.546 235.365 222.225 234.124 219.423 234.124C216.141 234.124 213.539 235.445 211.617 238.087C209.696 240.648 208.735 243.891 208.735 247.813C208.735 249.014 208.775 250.495 208.855 252.256C209.016 254.018 209.336 255.619 209.816 257.06L229.15 247.333ZM316.648 261.743C316.648 263.825 316.768 265.906 317.009 267.987C317.329 269.989 317.969 271.71 318.93 273.151C319.971 274.512 321.572 275.313 323.733 275.553C324.374 275.633 324.734 275.833 324.814 276.153C324.974 276.393 325.054 276.714 325.054 277.114V281.077C325.054 282.197 324.494 282.758 323.373 282.758C319.45 282.758 316.168 282.998 313.526 283.478C310.964 283.879 308.723 284.439 306.801 285.159C304.96 285.8 303.119 286.52 301.278 287.321C300.957 287.481 300.637 287.561 300.317 287.561H300.077C299.917 287.561 299.837 287.441 299.837 287.201C299.837 286.961 299.957 285.76 300.197 283.598C300.517 281.357 301.037 277.514 301.758 272.07C300.637 274.312 299.076 276.633 297.075 279.035C295.073 281.437 292.632 283.478 289.75 285.159C286.948 286.761 283.705 287.561 280.023 287.561C275.7 287.561 272.177 286.921 269.455 285.64C266.814 284.279 264.772 282.518 263.331 280.356C261.89 278.115 260.89 275.633 260.329 272.911C259.849 270.109 259.609 267.267 259.609 264.385V244.571C259.609 241.289 258.848 238.567 257.327 236.405C255.886 234.244 253.684 233.163 250.722 233.163H250.242C249.041 233.163 248.441 232.563 248.441 231.362V227.759C248.441 226.559 249.041 225.958 250.242 225.958H274.619C275.82 225.958 276.42 226.559 276.42 227.759V265.105C276.42 267.267 276.62 269.268 277.021 271.11C277.421 272.871 278.222 274.312 279.422 275.433C280.703 276.473 282.585 276.994 285.066 276.994C287.068 276.994 289.069 276.513 291.071 275.553C293.072 274.512 294.833 273.231 296.354 271.71C297.955 270.109 299.076 268.468 299.717 266.787V244.571C299.717 241.289 298.956 238.567 297.435 236.405C295.994 234.244 293.832 233.163 290.95 233.163H290.71C289.509 233.163 288.909 232.563 288.909 231.362V227.759C288.909 226.559 289.509 225.958 290.71 225.958H314.847C316.048 225.958 316.648 226.559 316.648 227.759V261.743ZM387.486 225.958C388.687 225.958 389.288 226.559 389.288 227.759V231.362C389.288 232.563 388.687 233.163 387.486 233.163H385.685C384.404 233.163 383.243 233.644 382.203 234.604C381.242 235.565 380.081 237.566 378.72 240.608L358.426 284.679C358.026 285.56 357.425 286 356.625 286H349.78C348.9 286 348.259 285.56 347.859 284.679L327.685 240.728C326.324 237.686 325.203 235.685 324.322 234.724C323.522 233.684 322.321 233.163 320.72 233.163H320.48C319.279 233.163 318.678 232.563 318.678 231.362V227.759C318.678 226.559 319.279 225.958 320.48 225.958H348.219C349.42 225.958 350.02 226.559 350.02 227.759V231.362C350.02 232.563 349.42 233.163 348.219 233.163H347.979C346.458 233.163 345.377 233.483 344.737 234.124C344.176 234.684 343.896 235.525 343.896 236.646C343.896 237.686 344.096 238.847 344.496 240.128C344.977 241.409 345.617 242.89 346.418 244.571L357.466 267.987L367.553 244.571C368.353 242.73 369.034 241.049 369.594 239.528C370.154 238.007 370.435 236.726 370.435 235.685C370.435 234.004 369.554 233.163 367.793 233.163H365.391C364.19 233.163 363.59 232.563 363.59 231.362V227.759C363.59 226.559 364.19 225.958 365.391 225.958H387.486ZM445.644 263.785C445.644 266.667 446.085 269.268 446.965 271.59C447.846 273.832 449.767 275.152 452.729 275.553C453.69 275.633 454.17 276.153 454.17 277.114V281.077C454.17 282.197 453.57 282.758 452.369 282.758C448.446 282.758 445.164 282.998 442.522 283.478C439.96 283.879 437.719 284.439 435.798 285.159C433.956 285.8 432.115 286.52 430.274 287.321C429.953 287.481 429.673 287.561 429.433 287.561H429.073C428.913 287.561 428.833 287.401 428.833 287.081C428.833 286.761 428.913 286 429.073 284.799C429.233 283.518 429.393 282.117 429.553 280.596C429.793 278.995 429.994 277.634 430.154 276.513C429.753 277.554 428.873 278.955 427.512 280.716C426.231 282.478 424.31 284.079 421.748 285.52C419.266 286.881 415.984 287.561 411.901 287.561C409.179 287.561 406.257 287.001 403.135 285.88C400.093 284.759 397.211 282.958 394.489 280.476C391.767 277.994 389.525 274.752 387.764 270.749C386.083 266.667 385.242 261.703 385.242 255.859C385.242 248.414 386.563 242.41 389.205 237.846C391.927 233.203 395.409 229.801 399.652 227.639C403.975 225.478 408.539 224.397 413.342 224.397C417.265 224.397 420.867 224.998 424.149 226.198C427.432 227.399 430.314 229.12 432.795 231.362C434.877 230.481 436.638 229.681 438.079 228.96C439.6 228.16 440.881 227.359 441.922 226.559C442.322 226.238 442.722 225.918 443.123 225.598C443.603 225.278 444.123 224.957 444.684 224.637C444.924 224.477 445.124 224.397 445.284 224.397H445.404C445.564 224.397 445.644 224.477 445.644 224.637V263.785ZM428.833 244.931C428.593 243.33 427.992 241.569 427.031 239.648C426.151 237.646 424.79 235.965 422.949 234.604C421.107 233.163 418.626 232.443 415.503 232.443C411.661 232.443 408.659 233.403 406.497 235.325C404.336 237.166 402.815 239.568 401.934 242.53C401.133 245.492 400.733 248.654 400.733 252.016C400.733 259.702 402.254 265.786 405.296 270.269C408.418 274.752 412.421 276.994 417.305 276.994C420.187 276.994 422.428 276.393 424.029 275.192C425.711 273.912 426.911 272.631 427.632 271.35C428.352 270.069 428.753 269.308 428.833 269.068V244.931Z" fill="#1E1E1E"/>
<path d="M196.775 387.621C197.976 387.621 198.576 388.221 198.576 389.422V393.024C198.576 394.225 197.976 394.826 196.775 394.826H164.112C162.911 394.826 162.311 394.225 162.311 393.024V389.422C162.311 388.221 162.911 387.621 164.112 387.621H164.472C166.714 387.621 168.315 386.54 169.276 384.378C170.236 382.137 170.717 379.415 170.717 376.213V355.678C170.717 351.676 170.196 348.714 169.156 346.792C168.115 344.791 165.753 343.79 162.071 343.79C159.109 343.79 156.187 344.671 153.305 346.432C150.503 348.193 148.541 350.355 147.42 352.916V376.213C147.42 379.415 148.141 382.137 149.582 384.378C151.103 386.54 153.345 387.621 156.307 387.621H156.547C157.748 387.621 158.348 388.221 158.348 389.422V393.024C158.348 394.225 157.748 394.826 156.547 394.826H121.603C120.402 394.826 119.801 394.225 119.801 393.024V389.422C119.801 388.221 120.402 387.621 121.603 387.621H121.843C124.805 387.621 127.006 386.54 128.447 384.378C129.888 382.137 130.609 379.415 130.609 376.213V331.181C130.609 329.02 130.449 326.938 130.128 324.937C129.888 322.936 129.288 321.254 128.327 319.893C127.367 318.452 125.765 317.612 123.524 317.372C122.563 317.292 122.083 316.771 122.083 315.811V311.728C122.083 311.247 122.203 310.927 122.443 310.767C122.763 310.527 123.204 310.327 123.764 310.167C127.527 308.886 131.329 307.365 135.172 305.604C139.095 303.842 142.817 301.641 146.34 298.999C146.58 298.839 146.78 298.759 146.94 298.759H147.06C147.22 298.759 147.3 298.839 147.3 298.999V345.111C148.021 343.67 149.222 342.029 150.903 340.188C152.664 338.346 154.906 336.745 157.628 335.384C160.349 333.943 163.552 333.223 167.234 333.223C170.997 333.223 174.399 333.823 177.441 335.024C180.564 336.225 183.045 338.346 184.887 341.388C186.728 344.351 187.649 348.553 187.649 353.997V376.213C187.649 379.415 188.369 382.137 189.81 384.378C191.251 386.54 193.453 387.621 196.415 387.621H196.775ZM211.257 373.331C212.618 376.693 214.78 379.695 217.742 382.337C220.784 384.979 224.626 386.3 229.27 386.3C231.831 386.3 234.513 385.579 237.315 384.138C240.117 382.697 242.559 380.456 244.64 377.414C244.881 377.013 245.201 376.813 245.601 376.813C246.001 376.813 246.402 376.933 246.802 377.173C247.282 377.414 248.483 378.094 250.404 379.215C250.725 379.455 250.885 379.775 250.885 380.175C250.885 380.736 250.645 381.416 250.164 382.217C247.923 386.38 244.881 389.782 241.038 392.424C237.195 395.066 232.192 396.387 226.027 396.387C219.383 396.387 213.659 394.906 208.855 391.944C204.052 388.982 200.33 385.059 197.688 380.175C195.126 375.292 193.845 369.968 193.845 364.204C193.845 358.681 194.646 353.957 196.247 350.034C197.928 346.032 200.129 342.829 202.851 340.428C205.573 337.946 208.615 336.145 211.978 335.024C215.42 333.823 218.902 333.223 222.425 333.223C226.428 333.223 229.95 334.023 232.992 335.624C236.034 337.146 238.596 339.107 240.678 341.509C242.839 343.91 244.44 346.472 245.481 349.194C246.602 351.836 247.162 354.317 247.162 356.639C247.162 357.28 246.802 357.76 246.081 358.08L211.257 373.331ZM229.15 356.159C229.15 352.316 228.229 349.154 226.388 346.672C224.546 344.19 222.225 342.95 219.423 342.95C216.141 342.95 213.539 344.27 211.617 346.912C209.696 349.474 208.735 352.716 208.735 356.639C208.735 357.84 208.775 359.321 208.855 361.082C209.016 362.843 209.336 364.445 209.816 365.886L229.15 356.159ZM308.899 372.61C308.899 375.492 309.34 378.094 310.22 380.416C311.101 382.657 313.022 383.978 315.984 384.378C316.945 384.458 317.425 384.979 317.425 385.939V389.902C317.425 391.023 316.825 391.583 315.624 391.583C311.701 391.583 308.419 391.824 305.777 392.304C303.215 392.704 300.974 393.265 299.052 393.985C297.211 394.626 295.37 395.346 293.528 396.147C293.208 396.307 292.928 396.387 292.688 396.387H292.328C292.168 396.387 292.087 396.227 292.087 395.906C292.087 395.586 292.168 394.826 292.328 393.625C292.488 392.344 292.648 390.943 292.808 389.422C293.048 387.821 293.248 386.46 293.408 385.339C293.008 386.38 292.128 387.781 290.767 389.542C289.486 391.303 287.564 392.904 285.003 394.345C282.521 395.706 279.239 396.387 275.156 396.387C272.434 396.387 269.512 395.826 266.39 394.706C263.347 393.585 260.465 391.784 257.744 389.302C255.022 386.82 252.78 383.578 251.019 379.575C249.338 375.492 248.497 370.529 248.497 364.685C248.497 357.24 249.818 351.235 252.46 346.672C255.182 342.029 258.664 338.627 262.907 336.465C267.23 334.304 271.793 333.223 276.597 333.223C280.519 333.223 284.122 333.823 287.404 335.024C290.687 336.225 293.569 337.946 296.05 340.188C298.132 339.307 299.893 338.506 301.334 337.786C302.855 336.985 304.136 336.185 305.177 335.384C305.577 335.064 305.977 334.744 306.377 334.424C306.858 334.103 307.378 333.783 307.939 333.463C308.179 333.303 308.379 333.223 308.539 333.223H308.659C308.819 333.223 308.899 333.303 308.899 333.463V372.61ZM292.087 353.757C291.847 352.156 291.247 350.395 290.286 348.473C289.406 346.472 288.045 344.791 286.203 343.43C284.362 341.989 281.88 341.268 278.758 341.268C274.916 341.268 271.913 342.229 269.752 344.15C267.59 345.992 266.069 348.393 265.189 351.355C264.388 354.317 263.988 357.48 263.988 360.842C263.988 368.527 265.509 374.612 268.551 379.095C271.673 383.578 275.676 385.819 280.559 385.819C283.441 385.819 285.683 385.219 287.284 384.018C288.965 382.737 290.166 381.456 290.887 380.175C291.607 378.895 292.007 378.134 292.087 377.894V353.757ZM352.506 387.621C353.707 387.621 354.308 388.221 354.308 389.422V393.024C354.308 394.225 353.627 394.826 352.266 394.826H318.283C316.922 394.826 316.241 394.225 316.241 393.024V389.422C316.241 388.221 316.842 387.621 318.042 387.621H318.283C321.245 387.621 323.406 386.54 324.767 384.378C326.208 382.137 326.929 379.415 326.929 376.213V331.181C326.929 328.94 326.769 326.818 326.448 324.817C326.208 322.816 325.608 321.134 324.647 319.773C323.686 318.332 322.085 317.492 319.844 317.252C318.883 317.172 318.403 316.651 318.403 315.691V311.608C318.403 311.127 318.563 310.807 318.883 310.647C319.203 310.487 319.644 310.287 320.204 310.047C325.888 307.965 330.411 306.044 333.773 304.283C337.216 302.441 340.058 300.68 342.299 298.999C342.459 298.839 342.62 298.759 342.78 298.759H343.14C343.3 298.759 343.38 298.839 343.38 298.999V376.093C343.38 379.295 344.101 382.017 345.542 384.258C346.983 386.5 349.184 387.621 352.146 387.621H352.506ZM396.595 386.18C396.835 386.5 396.955 386.86 396.955 387.26C396.955 387.741 396.635 388.181 395.995 388.581L392.392 390.863C390.231 392.224 387.629 393.505 384.587 394.706C381.544 395.826 378.502 396.387 375.46 396.387C373.059 396.387 370.777 395.826 368.615 394.706C366.534 393.585 364.853 391.704 363.572 389.062C362.291 386.34 361.651 382.617 361.651 377.894V355.678C361.651 353.517 361.531 351.395 361.29 349.314C361.05 347.152 360.29 345.391 359.009 344.03C357.808 342.669 355.767 341.989 352.885 341.989C351.684 341.989 351.083 341.388 351.083 340.188V336.585C351.083 335.384 351.684 334.784 352.885 334.784H361.651V326.738C361.651 325.698 362.011 324.977 362.731 324.577C364.493 323.616 366.814 322.295 369.696 320.614C372.578 318.853 375.14 316.851 377.382 314.61C377.542 314.45 377.742 314.37 377.982 314.37H378.222C378.382 314.37 378.462 314.49 378.462 314.73V334.784H394.554C395.754 334.784 396.355 335.384 396.355 336.585V341.749C396.355 342.95 395.754 343.55 394.554 343.55H378.462V377.894C378.462 381.016 378.943 383.178 379.903 384.378C380.864 385.499 382.065 386.06 383.506 386.06C384.867 386.06 386.308 385.699 387.829 384.979C389.35 384.178 390.751 383.378 392.032 382.577C392.592 382.257 393.032 382.097 393.353 382.097C393.833 382.097 394.273 382.417 394.674 383.057L396.595 386.18ZM473.319 387.621C474.52 387.621 475.12 388.221 475.12 389.422V393.024C475.12 394.225 474.52 394.826 473.319 394.826H440.656C439.455 394.826 438.855 394.225 438.855 393.024V389.422C438.855 388.221 439.455 387.621 440.656 387.621H441.017C443.258 387.621 444.859 386.54 445.82 384.378C446.781 382.137 447.261 379.415 447.261 376.213V355.678C447.261 351.676 446.741 348.714 445.7 346.792C444.659 344.791 442.297 343.79 438.615 343.79C435.653 343.79 432.731 344.671 429.849 346.432C427.047 348.193 425.085 350.355 423.965 352.916V376.213C423.965 379.415 424.685 382.137 426.126 384.378C427.647 386.54 429.889 387.621 432.851 387.621H433.091C434.292 387.621 434.892 388.221 434.892 389.422V393.024C434.892 394.225 434.292 394.826 433.091 394.826H398.147C396.946 394.826 396.345 394.225 396.345 393.024V389.422C396.345 388.221 396.946 387.621 398.147 387.621H398.387C401.349 387.621 403.55 386.54 404.991 384.378C406.432 382.137 407.153 379.415 407.153 376.213V331.181C407.153 329.02 406.993 326.938 406.673 324.937C406.432 322.936 405.832 321.254 404.871 319.893C403.911 318.452 402.31 317.612 400.068 317.372C399.107 317.292 398.627 316.771 398.627 315.811V311.728C398.627 311.247 398.747 310.927 398.987 310.767C399.307 310.527 399.748 310.327 400.308 310.167C404.071 308.886 407.873 307.365 411.716 305.604C415.639 303.842 419.361 301.641 422.884 298.999C423.124 298.839 423.324 298.759 423.484 298.759H423.604C423.765 298.759 423.845 298.839 423.845 298.999V345.111C424.565 343.67 425.766 342.029 427.447 340.188C429.208 338.346 431.45 336.745 434.172 335.384C436.894 333.943 440.096 333.223 443.778 333.223C447.541 333.223 450.943 333.823 453.986 335.024C457.108 336.225 459.589 338.346 461.431 341.388C463.272 344.351 464.193 348.553 464.193 353.997V376.213C464.193 379.415 464.913 382.137 466.354 384.378C467.795 386.54 469.997 387.621 472.959 387.621H473.319Z" fill="#1E1E1E"/>
</g>
<defs>
<clipPath id="clip0_21_1216">
<rect width="597" height="597" fill="white"/>
</clipPath>
</defs>
</svg>
